# xmcd
#
# Track frame offsets:
#	150
#	12618
#	35108
#	54406
#	69297
#	84395
#	105458
#	120489
#	138613
#	152341
#	168017
#	186290
#	198974
#	213065
#	231378
#	249751
#	261251
#	281850
#	301743
#	319536
#	335439
#
# Disc length: 4609 seconds
#
# Revision: 3
# Processed by: cddbd v1.5.2PL0 Copyright (c) Steve Scherf et al.
# Submitted via: EasyCDDAExtractor 2011.0.0.0
#
DISCID=1a11ff15
DTITLE=송창식 이야기 - 세시봉친구들
DYEAR=2011
DGENRE=Korean Modern Folk
TTITLE0=한번쯤
TTITLE1=나의 기타 이야기
TTITLE2=우리는
TTITLE3=피리부는 사나이
TTITLE4=맨 처음 고백
TTITLE5=사랑이야
TTITLE6=당신은
TTITLE7=가나다라
TTITLE8=푸르른 날
TTITLE9=고래사냥
TTITLE10=토함산
TTITLE11=상아의 노래
TTITLE12=애인
TTITLE13=참새의 하루
TTITLE14=선운사
TTITLE15=왜 불러
TTITLE16=밤눈
TTITLE17=담배가게 아가씨
TTITLE18=새는
TTITLE19=축가
TTITLE20=내 나라 내 겨
EXTD=
EXTT0=
EXTT1=
EXTT2=
EXTT3=
EXTT4=
EXTT5=
EXTT6=
EXTT7=
EXTT8=
EXTT9=
EXTT10=
EXTT11=
EXTT12=
EXTT13=
EXTT14=
EXTT15=
EXTT16=
EXTT17=
EXTT18=
EXTT19=
EXTT20=
PLAYORDER=
